# Blender v2.92.0 OBJ File: 'Tree_pack.blend'
# www.blender.org
mtllib Leaf_2.mtl
o Leaf.2
v -0.048171 0.035733 0.067330
v -0.034732 0.035536 -0.067093
v 0.048171 0.035733 0.067330
v 0.034732 0.035536 -0.067093
v -0.056208 0.035648 0.000105
v 0.056208 0.035648 0.000105
v -0.000000 0.004981 -0.098925
v -0.000000 0.004998 0.101672
v -0.000000 0.004998 0.000140
v -0.050686 0.031413 0.067451
v -0.037538 0.031413 -0.067451
v 0.050686 0.031413 0.067451
v 0.037538 0.031413 -0.067451
v -0.058864 0.031413 -0.000000
v 0.058864 0.031413 0.000000
v -0.000000 0.000000 -0.099358
v -0.000000 0.000000 0.101812
v -0.000000 0.000000 -0.000000
vt 0.000000 0.000000
vt 1.000000 1.000000
vt 0.000000 1.000000
vt 1.000000 0.000000
vt 0.000000 1.000000
vt 0.000000 0.000000
vt 0.000000 0.000000
vt 1.000000 1.000000
vt 0.000000 1.000000
vt 1.000000 0.000000
vt 0.000000 1.000000
vt 0.000000 0.000000
vt 0.000000 0.000000
vt 1.000000 1.000000
vt 1.000000 0.000000
vt 0.000000 1.000000
vt 1.000000 0.000000
vt 0.000000 0.000000
vt 0.000000 0.000000
vt 1.000000 1.000000
vt 1.000000 0.000000
vt 0.000000 1.000000
vt 1.000000 0.000000
vt 0.000000 0.000000
vt 1.000000 1.000000
vt 1.000000 1.000000
vt 1.000000 0.000000
vt 0.000000 1.000000
vt 1.000000 0.000000
vt 1.000000 1.000000
vt 0.000000 1.000000
vt 1.000000 1.000000
vn 0.5379 0.8430 -0.0000
vn 0.6604 0.7509 -0.0001
vn -0.4733 0.8681 0.1498
vn -0.4780 0.8764 -0.0582
vn -0.4700 -0.8808 0.0570
vn -0.6418 -0.7669 -0.0000
vn 0.6418 -0.7669 0.0000
vn 0.4700 -0.8808 0.0570
vn -0.8156 0.5180 -0.2579
vn 0.6122 0.0685 -0.7877
vn 0.8438 0.5269 0.1023
vn -0.5510 0.0235 0.8342
vn -0.8584 0.5027 0.1020
vn 0.7894 0.5592 -0.2532
vn -0.4328 0.3662 -0.8238
vn 0.4343 0.2770 0.8571
vn 0.4780 0.8764 -0.0582
vn 0.4733 0.8681 0.1498
vn -0.6604 0.7509 -0.0001
vn -0.5379 0.8430 0.0000
vn -0.5268 -0.8500 0.0000
vn -0.4657 -0.8726 -0.1472
vn 0.4657 -0.8726 -0.1472
vn 0.5268 -0.8500 -0.0000
vn -0.7894 0.5592 -0.2532
vn 0.4328 0.3662 -0.8238
vn 0.8584 0.5027 0.1020
vn -0.4343 0.2770 0.8571
vn -0.8438 0.5268 0.1023
vn 0.8156 0.5180 -0.2579
vn -0.6122 0.0685 -0.7877
vn 0.5510 0.0235 0.8342
usemtl Leaf
s off
f 9/1/1 1/2/1 8/3/1
f 2/4/2 9/5/2 7/6/2
f 4/7/3 9/8/3 6/9/3
f 9/10/4 3/11/4 6/12/4
f 18/13/5 10/14/5 14/15/5
f 18/16/6 11/17/6 16/18/6
f 13/19/7 18/20/7 16/21/7
f 12/22/8 18/23/8 15/24/8
f 5/25/9 11/17/9 14/26/9
f 7/27/10 13/19/10 16/21/10
f 6/12/11 12/22/11 15/24/11
f 8/3/12 10/14/12 17/28/12
f 5/29/13 10/14/13 1/2/13
f 6/9/14 13/19/14 4/7/14
f 7/6/15 11/17/15 2/4/15
f 8/30/16 12/22/16 3/11/16
f 9/1/17 5/29/17 1/2/17
f 2/4/18 5/25/18 9/5/18
f 4/7/19 7/27/19 9/8/19
f 9/10/20 8/30/20 3/11/20
f 18/13/21 17/28/21 10/14/21
f 18/16/22 14/26/22 11/17/22
f 13/19/23 15/31/23 18/20/23
f 12/22/24 17/32/24 18/23/24
f 5/25/25 2/4/25 11/17/25
f 7/27/26 4/7/26 13/19/26
f 6/12/27 3/11/27 12/22/27
f 8/3/28 1/2/28 10/14/28
f 5/29/29 14/15/29 10/14/29
f 6/9/30 15/31/30 13/19/30
f 7/6/31 16/18/31 11/17/31
f 8/30/32 17/32/32 12/22/32
