# Blender v2.92.0 OBJ File: 'Tree_pack.blend'
# www.blender.org
mtllib Log_1.mtl
o Log.1
v 0.000669 0.041946 -0.528695
v 0.047288 0.017973 0.604856
v 0.032887 0.095080 -0.246927
v -0.018773 0.067779 0.212655
v 0.010061 0.050552 0.204982
v 0.067617 0.074773 -0.252485
v 0.010061 0.016099 0.204982
v 0.067617 0.034158 -0.252485
v -0.018773 -0.001127 0.212655
v 0.032887 0.013851 -0.246927
v -0.047607 0.016099 0.220328
v -0.001845 0.034158 -0.241367
v -0.047607 0.050552 0.220328
v -0.001845 0.074773 -0.241367
v 0.000669 0.083978 -0.528695
v 0.037069 0.062962 -0.528695
v 0.037069 0.020930 -0.528695
v 0.000669 -0.000086 -0.528695
v -0.035732 0.020930 -0.528695
v -0.035732 0.062962 -0.528695
v 0.035228 0.021682 0.540716
v 0.023012 0.028805 0.542455
v 0.035228 0.007434 0.540716
v 0.023012 0.000311 0.542455
v 0.010797 0.007434 0.544193
v 0.010797 0.021682 0.544193
v 0.000669 0.075151 -0.528695
v 0.029424 0.058548 -0.528695
v 0.029424 0.025343 -0.528695
v 0.000669 0.008741 -0.528695
v -0.028088 0.025343 -0.528695
v -0.028088 0.058548 -0.528695
v 0.041430 0.021389 0.605690
v 0.047288 0.011143 0.604856
v 0.041430 0.007727 0.605690
v 0.035574 0.011143 0.606523
v 0.035574 0.017973 0.606523
v 0.042221 0.014558 0.608405
vt 0.000000 0.000000
vt 1.000000 1.000000
vt 0.000000 1.000000
vt 0.000000 0.000000
vt 1.000000 1.000000
vt 0.000000 1.000000
vt 0.000000 0.000000
vt 1.000000 1.000000
vt 0.000000 1.000000
vt 0.000000 0.000000
vt 0.000000 1.000000
vt 0.000000 0.000000
vt 1.000000 1.000000
vt 0.000000 1.000000
vt 0.000000 0.000000
vt 1.000000 1.000000
vt 0.000000 1.000000
vt 0.000000 0.000000
vt 1.000000 1.000000
vt 0.000000 1.000000
vt 0.000000 0.000000
vt 1.000000 1.000000
vt 0.000000 1.000000
vt 0.000000 0.000000
vt 1.000000 1.000000
vt 0.000000 1.000000
vt 0.000000 0.000000
vt 1.000000 1.000000
vt 0.000000 1.000000
vt 0.000000 0.000000
vt 1.000000 1.000000
vt 0.000000 1.000000
vt 0.000000 0.000000
vt 1.000000 1.000000
vt 0.000000 1.000000
vt 0.000000 0.000000
vt 1.000000 1.000000
vt 0.000000 1.000000
vt 0.000000 0.000000
vt 1.000000 1.000000
vt 0.000000 1.000000
vt 0.000000 0.000000
vt 1.000000 1.000000
vt 0.000000 1.000000
vt 0.000000 0.000000
vt 1.000000 1.000000
vt 0.000000 1.000000
vt 0.000000 0.000000
vt 1.000000 1.000000
vt 0.000000 0.000000
vt 1.000000 1.000000
vt 0.000000 0.000000
vt 1.000000 1.000000
vt 0.000000 0.000000
vt 1.000000 1.000000
vt 0.000000 0.000000
vt 1.000000 1.000000
vt 0.000000 0.000000
vt 1.000000 1.000000
vt 0.000000 0.000000
vt 1.000000 1.000000
vt 0.000000 1.000000
vt 0.000000 0.000000
vt 1.000000 1.000000
vt 0.000000 1.000000
vt 0.000000 0.000000
vt 1.000000 1.000000
vt 0.000000 1.000000
vt 0.000000 0.000000
vt 1.000000 1.000000
vt 0.000000 1.000000
vt 0.000000 0.000000
vt 1.000000 1.000000
vt 0.000000 1.000000
vt 0.000000 0.000000
vt 1.000000 1.000000
vt 0.000000 1.000000
vt 0.000000 0.000000
vt 1.000000 0.000000
vt 1.000000 1.000000
vt 0.000000 0.000000
vt 1.000000 0.000000
vt 0.000000 0.000000
vt 1.000000 0.000000
vt 0.000000 0.000000
vt 1.000000 0.000000
vt 0.000000 0.000000
vt 1.000000 0.000000
vt 0.000000 0.000000
vt 1.000000 0.000000
vt 1.000000 1.000000
vt 0.000000 1.000000
vt 0.000000 1.000000
vt 1.000000 0.000000
vt 1.000000 0.000000
vt 1.000000 0.000000
vt 1.000000 0.000000
vt 1.000000 0.000000
vt 1.000000 0.000000
vt 1.000000 0.000000
vt 1.000000 0.000000
vt 1.000000 0.000000
vt 1.000000 0.000000
vt 1.000000 0.000000
vt 1.000000 0.000000
vt 1.000000 0.000000
vt 1.000000 0.000000
vt 1.000000 0.000000
vt 1.000000 0.000000
vt 1.000000 0.000000
vt 1.000000 0.000000
vt 1.000000 0.000000
vt 1.000000 0.000000
vt 1.000000 0.000000
vt 1.000000 0.000000
vt 1.000000 0.000000
vt 1.000000 0.000000
vt 0.000000 0.000000
vt 1.000000 1.000000
vt 1.000000 1.000000
vt 1.000000 1.000000
vt 1.000000 1.000000
vt 1.000000 1.000000
vt 1.000000 1.000000
vn 0.5073 0.8610 0.0360
vn -0.4986 -0.8643 0.0668
vn -0.9841 0.0000 0.1775
vn -0.4739 0.8655 0.1623
vn -0.4999 0.8658 0.0230
vn -0.5054 0.8629 -0.0056
vn -0.9931 0.0000 0.1171
vn -0.9951 0.0000 -0.0986
vn -0.4976 -0.8618 0.0984
vn -0.5130 -0.8543 -0.0843
vn 0.4999 -0.8659 -0.0143
vn 0.5080 -0.8609 0.0290
vn 0.9939 0.0000 -0.1099
vn 0.9922 0.0000 0.1248
vn 0.4979 0.8624 -0.0919
vn 0.5147 0.8503 0.1098
vn 0.0000 0.0000 -1.0000
vn 0.4986 -0.8657 -0.0437
vn 0.4986 0.8657 -0.0437
vn -0.9293 0.0000 0.3694
vn 0.9828 0.0000 -0.1848
vn -0.4644 -0.8538 0.2354
vn -0.4644 0.8538 0.2354
vn 0.5736 0.0000 0.8191
vn -0.0779 -0.3604 0.9295
vn -0.0779 0.3604 0.9295
vn 0.3442 0.3809 0.8581
vn 0.3442 -0.3809 0.8581
vn -0.2724 0.0000 0.9622
vn 0.4966 -0.8660 -0.0591
vn 0.9972 0.0000 -0.0748
vn 0.5194 0.8538 0.0351
vn -0.4956 -0.8660 0.0666
vn -0.4795 0.8622 0.1633
vn -0.5018 0.8647 0.0236
vn -0.5140 0.8577 -0.0060
vn -0.4904 -0.8659 0.0989
vn -0.5279 -0.8449 -0.0869
vn 0.5030 -0.8642 -0.0142
vn 0.5188 -0.8543 0.0315
vn 0.4919 0.8660 -0.0904
vn 0.5311 0.8402 0.1096
vn 0.5002 -0.8638 -0.0598
usemtl Tree_wood
s off
f 5/1/1 22/2/1 21/3/1
f 9/4/2 25/5/2 11/6/2
f 11/7/3 26/8/3 13/9/3
f 13/10/4 22/2/4 4/11/4
f 20/12/5 3/13/5 15/14/5
f 14/15/6 4/16/6 3/17/6
f 19/18/7 14/19/7 20/20/7
f 12/21/8 13/22/8 14/23/8
f 18/24/9 12/25/9 19/26/9
f 10/27/10 11/28/10 12/29/10
f 17/30/11 10/31/11 18/32/11
f 8/33/12 9/34/12 10/35/12
f 16/36/13 8/37/13 17/38/13
f 6/39/14 7/40/14 8/41/14
f 15/42/15 6/43/15 16/44/15
f 3/45/16 5/46/16 6/47/16
f 28/48/17 15/49/17 16/44/17
f 29/50/17 16/51/17 17/38/17
f 30/52/17 17/53/17 18/32/17
f 31/54/17 18/55/17 19/26/17
f 32/56/17 19/57/17 20/20/17
f 27/58/17 20/59/17 15/14/17
f 24/60/18 34/61/18 35/62/18
f 21/63/19 33/64/19 2/65/19
f 26/66/20 36/67/20 37/68/20
f 23/69/21 2/70/21 34/71/21
f 25/72/22 35/73/22 36/74/22
f 22/75/23 37/76/23 33/77/23
f 34/78/24 2/79/24 38/80/24
f 36/81/25 35/82/25 38/80/25
f 33/83/26 37/84/26 38/80/26
f 2/85/27 33/86/27 38/80/27
f 35/87/28 34/88/28 38/80/28
f 37/89/29 36/90/29 38/80/29
f 9/4/30 23/91/30 24/92/30
f 21/63/31 7/40/31 5/93/31
f 5/1/32 4/94/32 22/2/32
f 9/4/33 24/95/33 25/5/33
f 11/7/3 25/96/3 26/8/3
f 13/10/34 26/97/34 22/2/34
f 20/12/35 14/98/35 3/13/35
f 14/15/36 13/99/36 4/16/36
f 19/18/7 12/100/7 14/19/7
f 12/21/8 11/101/8 13/22/8
f 18/24/37 10/102/37 12/25/37
f 10/27/38 9/103/38 11/28/38
f 17/30/39 8/104/39 10/31/39
f 8/33/40 7/105/40 9/34/40
f 16/36/13 6/106/13 8/37/13
f 6/39/14 5/107/14 7/40/14
f 15/42/41 3/108/41 6/43/41
f 3/45/42 4/94/42 5/46/42
f 28/48/17 27/109/17 15/49/17
f 29/50/17 28/110/17 16/51/17
f 30/52/17 29/111/17 17/53/17
f 31/54/17 30/112/17 18/55/17
f 32/56/17 31/113/17 19/57/17
f 27/58/17 32/114/17 20/59/17
f 24/60/18 23/115/18 34/61/18
f 21/63/19 22/116/19 33/64/19
f 26/66/20 25/96/20 36/67/20
f 23/69/21 21/117/21 2/70/21
f 25/72/22 24/95/22 35/73/22
f 22/75/23 26/97/23 37/76/23
f 9/4/43 7/105/43 23/91/43
f 21/63/31 23/115/31 7/40/31
usemtl Tree_wood_inner.1
f 1/118/17 27/109/17 28/119/17
f 1/118/17 28/110/17 29/120/17
f 1/118/17 29/111/17 30/121/17
f 1/118/17 30/112/17 31/122/17
f 1/118/17 31/113/17 32/123/17
f 1/118/17 32/114/17 27/124/17
