# Blender v2.92.0 OBJ File: 'Tree_pack.blend'
# www.blender.org
mtllib Log_2.mtl
o Log.2_Log.001
v 0.001026 0.064381 -0.811474
v 0.024420 0.027586 0.995402
v -0.035707 0.174302 -0.242539
v 0.043007 0.105761 0.326396
v 0.088539 0.079321 0.331306
v 0.013327 0.145478 -0.251921
v 0.088539 0.026440 0.331306
v 0.013327 0.087830 -0.251921
v 0.043007 -0.000000 0.326396
v -0.035707 0.059006 -0.242539
v -0.002525 0.026440 0.321486
v -0.084743 0.087830 -0.233157
v -0.002525 0.079321 0.321486
v -0.084743 0.145478 -0.233157
v 0.001026 0.128894 -0.811474
v 0.056896 0.096638 -0.811474
v 0.056896 0.032125 -0.811474
v 0.001026 -0.000132 -0.811474
v -0.054844 0.032125 -0.811474
v -0.054844 0.096638 -0.811474
v 0.019964 0.033278 0.895330
v 0.001026 0.044212 0.895330
v 0.019964 0.011411 0.895330
v 0.001026 0.000477 0.895330
v -0.017912 0.011411 0.895330
v -0.017912 0.033278 0.895330
v 0.001026 0.115346 -0.811474
v 0.045162 0.089863 -0.811474
v 0.045162 0.038899 -0.811474
v 0.001026 0.013416 -0.811474
v -0.043112 0.038899 -0.811474
v -0.043112 0.089863 -0.811474
v 0.015339 0.032829 0.995402
v 0.024420 0.017102 0.995402
v 0.015339 0.011860 0.995402
v 0.006260 0.017102 0.995402
v 0.006260 0.027586 0.995402
v 0.015953 0.022344 0.999699
v 0.077679 0.076865 0.420636
v 0.077044 0.029039 0.425847
v 0.448650 0.009546 1.088117
v 0.144062 0.117302 0.569308
v 0.305691 0.051283 0.795798
v 0.325747 0.037509 0.787047
v 0.162313 0.102710 0.553544
v 0.324297 0.011710 0.786133
v 0.160732 0.074585 0.552547
v 0.302792 -0.000316 0.793970
v 0.140902 0.061051 0.567315
v 0.282734 0.013457 0.802721
v 0.122652 0.075643 0.583079
v 0.284184 0.039257 0.803635
v 0.124231 0.103768 0.584076
v 0.424101 0.015206 1.046021
v 0.416222 0.020846 1.050542
v 0.423502 0.004537 1.045643
v 0.415024 -0.000491 1.049786
v 0.407145 0.005149 1.054306
v 0.407743 0.015818 1.054684
v 0.083109 0.078093 0.375971
v 0.444872 0.012250 1.090284
v 0.448362 0.004430 1.087936
v 0.444298 0.002020 1.089922
v 0.440519 0.004724 1.092089
v 0.440807 0.009839 1.092270
v 0.445827 0.007004 1.091818
vt 0.000000 0.000000
vt 1.000000 1.000000
vt 0.000000 1.000000
vt 0.000000 0.000000
vt 1.000000 1.000000
vt 1.000000 1.000000
vt 0.000000 1.000000
vt 0.000000 0.000000
vt 1.000000 1.000000
vt 0.000000 1.000000
vt 0.000000 0.000000
vt 1.000000 1.000000
vt 0.000000 1.000000
vt 0.000000 0.000000
vt 1.000000 1.000000
vt 0.000000 1.000000
vt 0.000000 0.000000
vt 1.000000 1.000000
vt 0.000000 1.000000
vt 0.000000 0.000000
vt 1.000000 1.000000
vt 0.000000 1.000000
vt 0.000000 0.000000
vt 1.000000 1.000000
vt 0.000000 1.000000
vt 0.000000 0.000000
vt 1.000000 1.000000
vt 0.000000 1.000000
vt 0.000000 0.000000
vt 1.000000 1.000000
vt 0.000000 1.000000
vt 0.000000 0.000000
vt 1.000000 1.000000
vt 0.000000 1.000000
vt 0.000000 0.000000
vt 1.000000 1.000000
vt 0.000000 1.000000
vt 0.000000 0.000000
vt 1.000000 1.000000
vt 0.000000 1.000000
vt 0.000000 0.000000
vt 1.000000 1.000000
vt 0.000000 1.000000
vt 0.000000 0.000000
vt 1.000000 1.000000
vt 0.000000 1.000000
vt 0.000000 0.000000
vt 1.000000 1.000000
vt 0.000000 1.000000
vt 0.000000 0.000000
vt 1.000000 1.000000
vt 0.000000 1.000000
vt 0.000000 0.000000
vt 1.000000 1.000000
vt 0.000000 0.000000
vt 1.000000 1.000000
vt 0.000000 0.000000
vt 1.000000 1.000000
vt 0.000000 0.000000
vt 1.000000 1.000000
vt 0.000000 0.000000
vt 1.000000 1.000000
vt 0.000000 0.000000
vt 1.000000 1.000000
vt 0.000000 0.000000
vt 1.000000 1.000000
vt 0.000000 1.000000
vt 0.000000 0.000000
vt 1.000000 1.000000
vt 0.000000 1.000000
vt 0.000000 0.000000
vt 1.000000 1.000000
vt 0.000000 1.000000
vt 0.000000 0.000000
vt 1.000000 1.000000
vt 0.000000 1.000000
vt 0.000000 0.000000
vt 1.000000 1.000000
vt 0.000000 1.000000
vt 0.000000 0.000000
vt 1.000000 1.000000
vt 0.000000 1.000000
vt 0.000000 0.000000
vt 1.000000 0.000000
vt 1.000000 1.000000
vt 0.000000 0.000000
vt 1.000000 0.000000
vt 0.000000 0.000000
vt 1.000000 0.000000
vt 0.000000 0.000000
vt 1.000000 0.000000
vt 0.000000 0.000000
vt 1.000000 0.000000
vt 0.000000 0.000000
vt 1.000000 0.000000
vt 1.000000 0.000000
vt 1.000000 1.000000
vt 0.000000 0.000000
vt 1.000000 1.000000
vt 0.000000 1.000000
vt 0.000000 0.000000
vt 1.000000 1.000000
vt 0.000000 1.000000
vt 0.000000 0.000000
vt 1.000000 1.000000
vt 0.000000 1.000000
vt 0.000000 0.000000
vt 1.000000 1.000000
vt 0.000000 1.000000
vt 0.000000 0.000000
vt 1.000000 1.000000
vt 0.000000 1.000000
vt 0.000000 0.000000
vt 1.000000 1.000000
vt 0.000000 1.000000
vt 0.000000 0.000000
vt 1.000000 1.000000
vt 0.000000 1.000000
vt 0.000000 0.000000
vt 1.000000 1.000000
vt 0.000000 1.000000
vt 0.000000 0.000000
vt 1.000000 1.000000
vt 0.000000 1.000000
vt 0.000000 0.000000
vt 1.000000 1.000000
vt 0.000000 1.000000
vt 0.000000 0.000000
vt 1.000000 1.000000
vt 0.000000 1.000000
vt 0.000000 0.000000
vt 1.000000 1.000000
vt 0.000000 1.000000
vt 0.000000 1.000000
vt 0.000000 0.000000
vt 1.000000 0.000000
vt 0.000000 0.000000
vt 1.000000 1.000000
vt 0.000000 1.000000
vt 0.000000 0.000000
vt 1.000000 1.000000
vt 0.000000 1.000000
vt 0.000000 0.000000
vt 1.000000 1.000000
vt 0.000000 1.000000
vt 0.000000 0.000000
vt 1.000000 1.000000
vt 0.000000 1.000000
vt 0.000000 0.000000
vt 1.000000 1.000000
vt 0.000000 1.000000
vt 0.000000 0.000000
vt 1.000000 1.000000
vt 0.000000 1.000000
vt 0.000000 0.000000
vt 1.000000 1.000000
vt 0.000000 1.000000
vt 0.000000 0.000000
vt 1.000000 0.000000
vt 1.000000 1.000000
vt 0.000000 0.000000
vt 1.000000 0.000000
vt 0.000000 0.000000
vt 1.000000 0.000000
vt 0.000000 0.000000
vt 1.000000 0.000000
vt 0.000000 0.000000
vt 1.000000 0.000000
vt 0.000000 0.000000
vt 1.000000 0.000000
vt 0.000000 1.000000
vt 1.000000 0.000000
vt 0.000000 0.000000
vt 1.000000 1.000000
vt 1.000000 0.000000
vt 1.000000 1.000000
vt 1.000000 0.000000
vt 1.000000 0.000000
vt 1.000000 0.000000
vt 1.000000 0.000000
vt 1.000000 0.000000
vt 1.000000 0.000000
vt 1.000000 0.000000
vt 1.000000 0.000000
vt 1.000000 0.000000
vt 1.000000 0.000000
vt 1.000000 0.000000
vt 1.000000 0.000000
vt 1.000000 0.000000
vt 1.000000 0.000000
vt 1.000000 0.000000
vt 1.000000 0.000000
vt 1.000000 0.000000
vt 1.000000 0.000000
vt 1.000000 0.000000
vt 1.000000 0.000000
vt 1.000000 0.000000
vt 1.000000 0.000000
vt 1.000000 0.000000
vt 1.000000 0.000000
vt 1.000000 0.000000
vt 1.000000 0.000000
vt 1.000000 0.000000
vt 1.000000 0.000000
vt 1.000000 0.000000
vt 1.000000 0.000000
vt 1.000000 0.000000
vt 1.000000 0.000000
vt 1.000000 0.000000
vt 1.000000 0.000000
vt 1.000000 0.000000
vt 1.000000 0.000000
vt 1.000000 0.000000
vt 1.000000 0.000000
vt 0.000000 0.000000
vt 1.000000 1.000000
vt 1.000000 1.000000
vt 1.000000 1.000000
vt 1.000000 1.000000
vt 1.000000 1.000000
vt 1.000000 1.000000
vn 0.3983 0.9077 0.1318
vn -0.9627 0.0419 0.2673
vn 0.5728 -0.8185 0.0430
vn -0.4989 -0.8659 -0.0361
vn -0.9996 0.0000 -0.0268
vn -0.5059 0.8608 0.0558
vn -0.4974 0.8616 -0.1009
vn -0.4751 0.8634 0.1697
vn -0.9987 0.0000 -0.0516
vn -0.9892 0.0000 0.1466
vn -0.4992 -0.8646 0.0575
vn -0.5094 -0.8603 -0.0197
vn 0.4963 -0.8596 0.1214
vn 0.4783 -0.8643 -0.1558
vn 0.9970 0.0000 0.0776
vn 0.9918 0.0000 -0.1279
vn 0.4997 0.8654 -0.0366
vn 0.5110 0.8590 0.0315
vn 0.0000 0.0000 -1.0000
vn 0.4998 -0.8657 0.0270
vn 0.4998 0.8657 0.0270
vn -0.9720 0.0000 0.2348
vn 0.9990 0.0000 -0.0445
vn -0.4929 -0.8538 0.1676
vn -0.4929 0.8538 0.1676
vn 0.4525 0.0000 0.8918
vn -0.2081 -0.3604 0.9093
vn -0.2081 0.3604 0.9093
vn 0.2199 0.3809 0.8981
vn 0.2199 -0.3809 0.8981
vn -0.4052 0.0000 0.9142
vn 0.4936 0.8656 0.0838
vn 0.5236 0.8426 -0.1263
vn 0.9330 -0.0397 -0.3578
vn 0.4264 -0.8848 -0.1877
vn -0.4881 -0.8463 0.2134
vn -0.8954 0.0346 0.4439
vn -0.3911 0.8784 0.2746
vn -0.2615 0.8604 0.4374
vn -0.8046 0.0242 0.5933
vn -0.5331 -0.8321 0.1530
vn 0.2708 -0.8627 -0.4270
vn 0.8157 -0.0254 -0.5780
vn 0.5384 0.8301 -0.1450
vn 0.9491 0.0000 -0.3151
vn 0.9927 -0.0000 0.1207
vn 0.4055 -0.8819 -0.2406
vn 0.5025 0.8458 -0.1793
vn -0.7492 0.0187 0.6621
vn 0.8617 -0.0306 -0.5066
vn -0.4052 -0.8453 0.3484
vn -0.3095 0.8586 0.4088
vn 0.8148 -0.0663 0.5760
vn 0.2193 -0.4049 0.8877
vn 0.2598 0.3143 0.9131
vn 0.6336 0.3212 0.7039
vn 0.5910 -0.4388 0.6769
vn 0.0677 -0.0392 0.9969
vn -0.4661 0.8841 -0.0324
vn -0.4272 0.9038 -0.0271
vn 0.5620 -0.8271 -0.0034
vn 0.5447 -0.8339 0.0892
vn 0.4936 -0.8656 0.0838
vn 0.4958 0.8587 0.1295
vn -0.9629 0.0446 0.2661
vn 0.4998 -0.8657 0.0283
vn -0.4997 -0.8655 -0.0361
vn -0.4992 0.8647 0.0560
vn -0.5182 0.8495 -0.0985
vn -0.5085 0.8429 0.1759
vn -0.4977 -0.8654 0.0578
vn -0.5004 -0.8655 -0.0205
vn 0.5204 -0.8448 0.1246
vn 0.5085 -0.8470 -0.1547
vn 0.5012 0.8646 -0.0366
vn 0.4990 0.8659 0.0353
vn 0.5275 0.8398 -0.1285
vn 0.9330 -0.0397 -0.3577
vn 0.4309 -0.8824 -0.1891
vn -0.4853 -0.8481 0.2123
vn -0.8954 0.0345 0.4439
vn -0.3884 0.8800 0.2733
vn -0.2983 0.8349 0.4626
vn -0.5177 -0.8438 0.1413
vn 0.3091 -0.8415 -0.4430
vn 0.8157 -0.0253 -0.5780
vn 0.5230 0.8427 -0.1276
vn 0.9525 -0.0429 -0.3015
vn 0.5026 0.8457 -0.1793
vn -0.7492 0.0186 0.6620
vn 0.8617 -0.0304 -0.5066
vn -0.4052 -0.8452 0.3484
vn 0.4677 0.8493 -0.2447
vn -0.5595 0.8288 0.0083
vn -0.4785 -0.8473 0.2304
usemtl Tree_wood
s off
f 4/1/1 21/2/1 39/3/1
f 40/4/2 53/5/2 39/3/2
f 40/4/3 24/6/3 9/7/3
f 9/8/4 25/9/4 11/10/4
f 11/11/5 26/12/5 13/13/5
f 13/14/6 22/15/6 4/16/6
f 20/17/7 3/18/7 15/19/7
f 14/20/8 4/21/8 3/22/8
f 19/23/9 14/24/9 20/25/9
f 12/26/10 13/27/10 14/28/10
f 18/29/11 12/30/11 19/31/11
f 10/32/12 11/33/12 12/34/12
f 17/35/13 10/36/13 18/37/13
f 8/38/14 9/39/14 10/40/14
f 16/41/15 8/42/15 17/43/15
f 6/44/16 7/45/16 8/46/16
f 15/47/17 6/48/17 16/49/17
f 3/50/18 5/51/18 6/52/18
f 28/53/19 15/54/19 16/49/19
f 29/55/19 16/56/19 17/43/19
f 30/57/19 17/58/19 18/37/19
f 31/59/19 18/60/19 19/31/19
f 32/61/19 19/62/19 20/25/19
f 27/63/19 20/64/19 15/19/19
f 24/65/20 34/66/20 35/67/20
f 21/68/21 33/69/21 2/70/21
f 26/71/22 36/72/22 37/73/22
f 23/74/23 2/75/23 34/76/23
f 25/77/24 35/78/24 36/79/24
f 22/80/25 37/81/25 33/82/25
f 34/83/26 2/84/26 38/85/26
f 36/86/27 35/87/27 38/85/27
f 33/88/28 37/89/28 38/85/28
f 2/90/29 33/91/29 38/85/29
f 35/92/30 34/93/30 38/85/30
f 37/94/31 36/95/31 38/85/31
f 4/1/32 39/96/32 60/97/32
f 43/98/33 54/99/33 44/100/33
f 44/101/34 56/102/34 46/103/34
f 46/104/35 57/105/35 48/106/35
f 48/107/36 58/108/36 50/109/36
f 50/110/37 59/111/37 52/112/37
f 52/113/38 55/114/38 43/115/38
f 53/116/39 43/117/39 42/118/39
f 51/119/40 52/120/40 53/121/40
f 49/122/41 50/123/41 51/124/41
f 47/125/42 48/126/42 49/127/42
f 45/128/43 46/129/43 47/130/43
f 42/131/44 44/132/44 45/133/44
f 45/128/45 7/45/45 5/134/45
f 5/135/32 4/136/32 60/97/32
f 39/137/46 23/138/46 40/139/46
f 57/140/47 62/141/47 63/142/47
f 54/143/48 61/144/48 41/145/48
f 59/146/49 64/147/49 65/148/49
f 56/149/50 41/150/50 62/151/50
f 58/152/51 63/153/51 64/154/51
f 55/155/52 65/156/52 61/157/52
f 62/158/53 41/159/53 66/160/53
f 64/161/54 63/162/54 66/160/54
f 61/163/55 65/164/55 66/160/55
f 41/165/56 61/166/56 66/160/56
f 63/167/57 62/168/57 66/160/57
f 65/169/58 64/170/58 66/160/58
f 42/131/59 5/51/59 60/171/59
f 53/116/60 60/97/60 39/3/60
f 47/125/61 49/172/61 7/45/61
f 7/173/62 51/174/62 40/139/62
f 9/8/63 7/175/63 40/176/63
f 4/1/64 22/177/64 21/2/64
f 40/4/65 51/178/65 53/5/65
f 40/4/66 23/179/66 24/6/66
f 9/8/67 24/180/67 25/9/67
f 11/11/5 25/181/5 26/12/5
f 13/14/68 26/182/68 22/15/68
f 20/17/69 14/183/69 3/18/69
f 14/20/70 13/184/70 4/21/70
f 19/23/9 12/185/9 14/24/9
f 12/26/10 11/186/10 13/27/10
f 18/29/71 10/187/71 12/30/71
f 10/32/72 9/188/72 11/33/72
f 17/35/73 8/189/73 10/36/73
f 8/38/74 7/175/74 9/39/74
f 16/41/15 6/190/15 8/42/15
f 6/44/16 5/191/16 7/45/16
f 15/47/75 3/192/75 6/48/75
f 3/50/76 4/136/76 5/51/76
f 28/53/19 27/193/19 15/54/19
f 29/55/19 28/194/19 16/56/19
f 30/57/19 29/195/19 17/58/19
f 31/59/19 30/196/19 18/60/19
f 32/61/19 31/197/19 19/62/19
f 27/63/19 32/198/19 20/64/19
f 24/65/20 23/179/20 34/66/20
f 21/68/21 22/177/21 33/69/21
f 26/71/22 25/181/22 36/72/22
f 23/74/23 21/199/23 2/75/23
f 25/77/24 24/180/24 35/78/24
f 22/80/25 26/182/25 37/81/25
f 43/98/77 55/200/77 54/99/77
f 44/101/78 54/201/78 56/102/78
f 46/104/79 56/202/79 57/105/79
f 48/107/80 57/203/80 58/108/80
f 50/110/81 58/204/81 59/111/81
f 52/113/82 59/205/82 55/114/82
f 53/116/83 52/206/83 43/117/83
f 51/119/40 50/207/40 52/120/40
f 49/122/84 48/208/84 50/123/84
f 47/125/85 46/209/85 48/126/85
f 45/128/86 44/210/86 46/129/86
f 42/131/87 43/211/87 44/132/87
f 45/128/88 47/212/88 7/45/88
f 39/137/46 21/199/46 23/138/46
f 57/140/47 56/202/47 62/141/47
f 54/143/89 55/200/89 61/144/89
f 59/146/90 58/204/90 64/147/90
f 56/149/91 54/201/91 41/150/91
f 58/152/92 57/203/92 63/153/92
f 55/155/52 59/205/52 65/156/52
f 42/131/93 45/213/93 5/51/93
f 53/116/94 42/214/94 60/97/94
f 7/173/95 49/172/95 51/174/95
usemtl Tree_wood_inner.1
f 1/215/19 27/193/19 28/216/19
f 1/215/19 28/194/19 29/217/19
f 1/215/19 29/195/19 30/218/19
f 1/215/19 30/196/19 31/219/19
f 1/215/19 31/197/19 32/220/19
f 1/215/19 32/198/19 27/221/19
