# Blender v2.92.0 OBJ File: 'Tree_pack.blend'
# www.blender.org
mtllib Stump_2.mtl
o Stump.2
v -0.019270 0.000000 -0.460271
v 0.364458 0.000000 -0.389396
v 0.478946 0.000000 0.053057
v 0.346300 0.000000 0.373292
v -0.019270 0.000000 0.445490
v -0.339505 0.000000 0.312845
v -0.472151 0.000000 -0.007390
v -0.339505 0.000000 -0.327625
v 0.069800 0.727234 -0.134973
v 0.296630 0.715573 -0.092520
v 0.342094 0.761445 0.107825
v 0.270836 0.736135 0.220806
v 0.092244 0.743403 0.390165
v -0.135964 0.725621 0.283106
v -0.139765 0.721993 0.104503
v -0.113806 0.754489 -0.065643
v 0.301782 0.261070 -0.284675
v 0.393841 0.231623 -0.004685
v 0.331277 0.265732 0.229385
v 0.058335 0.221006 0.398212
v -0.250774 0.263520 0.254499
v -0.338937 0.268144 -0.020616
v -0.256244 0.266058 -0.291142
v 0.013687 0.268875 -0.377870
v 0.072012 0.728450 -0.101126
v 0.266396 0.718457 -0.064746
v 0.305357 0.757768 0.106943
v 0.244291 0.736078 0.203763
v 0.091245 0.742307 0.348898
v -0.104321 0.727068 0.257152
v -0.107578 0.723959 0.104096
v -0.085332 0.751807 -0.041712
v 0.087167 0.674415 0.102200
v -0.104321 0.674415 0.257152
v -0.107578 0.674415 0.104096
v 0.244291 0.674415 0.203763
v 0.091245 0.674415 0.348898
v 0.266396 0.674415 -0.064746
v 0.305357 0.674415 0.106943
v 0.072012 0.674415 -0.101126
v -0.085332 0.674415 -0.041712
v 0.043938 0.674415 0.152280
v 0.032154 0.674415 0.108040
v 0.140230 0.674415 0.136133
v 0.091300 0.674415 0.170507
v 0.144094 0.674415 0.055361
v 0.152455 0.674415 0.092206
v 0.083712 0.674415 0.044060
v 0.039360 0.674415 0.060808
vt 0.000000 0.000000
vt 1.000000 1.000000
vt 0.000000 1.000000
vt 0.000000 0.000000
vt 1.000000 1.000000
vt 0.000000 1.000000
vt 0.000000 0.000000
vt 1.000000 1.000000
vt 0.000000 1.000000
vt 0.000000 0.000000
vt 1.000000 1.000000
vt 0.000000 1.000000
vt 0.000000 0.000000
vt 1.000000 1.000000
vt 0.000000 1.000000
vt 0.000000 0.000000
vt 1.000000 1.000000
vt 0.000000 1.000000
vt 0.000000 0.000000
vt 1.000000 1.000000
vt 0.000000 1.000000
vt 0.000000 0.000000
vt 1.000000 1.000000
vt 0.000000 1.000000
vt 0.000000 0.000000
vt 1.000000 1.000000
vt 0.000000 1.000000
vt 0.000000 0.000000
vt 1.000000 1.000000
vt 0.000000 1.000000
vt 0.000000 0.000000
vt 1.000000 1.000000
vt 0.000000 1.000000
vt 0.000000 0.000000
vt 1.000000 1.000000
vt 0.000000 1.000000
vt 0.000000 0.000000
vt 1.000000 1.000000
vt 0.000000 1.000000
vt 0.000000 0.000000
vt 1.000000 1.000000
vt 0.000000 1.000000
vt 0.000000 0.000000
vt 1.000000 1.000000
vt 0.000000 1.000000
vt 0.000000 0.000000
vt 1.000000 1.000000
vt 0.000000 1.000000
vt 0.000000 0.000000
vt 1.000000 1.000000
vt 0.000000 1.000000
vt 0.000000 0.000000
vt 1.000000 1.000000
vt 0.000000 1.000000
vt 0.000000 0.000000
vt 1.000000 1.000000
vt 0.000000 1.000000
vt 0.000000 0.000000
vt 1.000000 1.000000
vt 0.000000 1.000000
vt 0.000000 0.000000
vt 1.000000 1.000000
vt 0.000000 1.000000
vt 0.000000 0.000000
vt 1.000000 1.000000
vt 0.000000 1.000000
vt 0.000000 0.000000
vt 1.000000 1.000000
vt 0.000000 1.000000
vt 0.000000 0.000000
vt 1.000000 1.000000
vt 0.000000 1.000000
vt 0.000000 0.000000
vt 1.000000 1.000000
vt 0.000000 1.000000
vt 0.000000 0.000000
vt 1.000000 1.000000
vt 0.000000 1.000000
vt 0.000000 0.000000
vt 1.000000 1.000000
vt 0.000000 1.000000
vt 0.000000 0.000000
vt 1.000000 1.000000
vt 0.000000 1.000000
vt 0.000000 0.000000
vt 1.000000 1.000000
vt 0.000000 1.000000
vt 0.000000 0.000000
vt 1.000000 1.000000
vt 0.000000 1.000000
vt 0.000000 0.000000
vt 1.000000 1.000000
vt 0.000000 1.000000
vt 0.000000 0.000000
vt 1.000000 1.000000
vt 0.000000 1.000000
vt 1.000000 0.000000
vt 1.000000 0.000000
vt 1.000000 0.000000
vt 1.000000 0.000000
vt 1.000000 0.000000
vt 1.000000 0.000000
vt 1.000000 0.000000
vt 1.000000 0.000000
vt 1.000000 0.000000
vt 1.000000 0.000000
vt 1.000000 0.000000
vt 1.000000 0.000000
vt 1.000000 0.000000
vt 1.000000 0.000000
vt 1.000000 0.000000
vt 1.000000 0.000000
vt 1.000000 0.000000
vt 1.000000 0.000000
vt 1.000000 0.000000
vt 1.000000 0.000000
vt 1.000000 0.000000
vt 1.000000 0.000000
vt 1.000000 0.000000
vt 1.000000 0.000000
vt 0.000000 0.000000
vt 0.000000 0.000000
vt 0.000000 0.000000
vt 0.000000 0.000000
vt 0.000000 0.000000
vt 0.000000 0.000000
vt 0.000000 0.000000
vt 0.000000 0.000000
vt 1.000000 0.000000
vt 1.000000 0.000000
vt 1.000000 0.000000
vt 1.000000 0.000000
vt 1.000000 0.000000
vt 1.000000 0.000000
vt 1.000000 0.000000
vt 1.000000 0.000000
vt 0.000000 0.000000
vt 1.000000 1.000000
vt 1.000000 1.000000
vt 1.000000 1.000000
vt 1.000000 1.000000
vt 1.000000 1.000000
vt 1.000000 1.000000
vt 1.000000 1.000000
vt 1.000000 1.000000
vn -0.2735 0.4763 -0.8357
vn -0.8825 0.3833 -0.2727
vn -0.9023 0.3148 0.2945
vn -0.4158 0.0471 0.9082
vn 0.5284 -0.0212 0.8487
vn 0.9626 0.1280 0.2386
vn 0.9433 0.1545 -0.2939
vn 0.2945 0.3750 -0.8790
vn 0.1664 0.4012 -0.9007
vn 0.9290 0.2814 -0.2404
vn 0.1918 0.1404 0.9713
vn -0.3630 0.3163 0.8764
vn -0.8336 0.4312 0.3453
vn -0.8743 0.3233 -0.3621
vn -0.3634 0.3134 -0.8773
vn 0.1304 0.9905 -0.0441
vn 0.0587 0.9975 -0.0397
vn -0.1021 0.9825 0.1557
vn -0.0660 0.9975 -0.0249
vn -0.0577 0.9822 0.1788
vn -0.0927 0.9749 -0.2022
vn 0.0151 0.9995 -0.0269
vn -0.0612 0.9979 -0.0190
vn 0.9998 0.0000 -0.0213
vn -0.9752 0.0000 0.2213
vn 0.4247 0.0000 -0.9053
vn -0.1840 0.0000 0.9829
vn -0.6881 0.0000 -0.7256
vn 0.9886 0.0000 0.1508
vn -0.8458 0.0000 -0.5335
vn 0.3533 0.0000 0.9355
vn 0.8943 0.2512 0.3704
vn -0.2514 0.4652 -0.8488
vn -0.9080 0.4148 -0.0593
vn -0.9706 0.2402 0.0158
vn -0.4270 0.0416 0.9033
vn 0.6867 0.1014 0.7198
vn 0.8484 -0.0294 0.5285
vn 0.9628 0.1144 -0.2447
vn 0.1869 0.4420 -0.8773
vn 0.3044 0.2448 -0.9205
vn 0.9083 0.3242 -0.2645
vn 0.4148 0.4513 0.7901
vn -0.3641 0.3153 0.8764
vn -0.8858 0.3624 0.2899
vn -0.8679 0.4179 -0.2685
vn -0.3004 0.2212 -0.9278
vn 0.9061 0.3795 0.1869
vn 0.0000 1.0000 0.0000
usemtl Tree_wood
s off
f 23/1/1 9/2/1 24/3/1
f 22/4/2 16/5/2 23/6/2
f 21/7/3 15/8/3 22/9/3
f 20/10/4 14/11/4 21/12/4
f 19/13/5 13/14/5 20/15/5
f 18/16/6 12/17/6 19/18/6
f 17/19/7 11/20/7 18/21/7
f 24/22/8 10/23/8 17/24/8
f 1/25/9 17/26/9 2/27/9
f 2/28/10 18/29/10 3/30/10
f 4/31/11 20/32/11 5/33/11
f 5/34/12 21/35/12 6/36/12
f 6/37/13 22/38/13 7/39/13
f 7/40/14 23/41/14 8/42/14
f 8/43/15 24/44/15 1/45/15
f 9/46/16 32/47/16 25/48/16
f 10/49/17 25/50/17 26/51/17
f 12/52/18 27/53/18 28/54/18
f 14/55/19 29/56/19 30/57/19
f 16/58/20 31/59/20 32/60/20
f 11/61/21 26/62/21 27/63/21
f 13/64/22 28/65/22 29/66/22
f 15/67/23 30/68/23 31/69/23
f 31/70/24 34/71/24 35/72/24
f 27/73/25 38/74/25 39/75/25
f 30/76/26 37/77/26 34/78/26
f 26/79/27 40/80/27 38/81/27
f 29/82/28 36/83/28 37/84/28
f 32/85/29 35/86/29 41/87/29
f 28/88/30 39/89/30 36/90/30
f 25/91/31 41/92/31 40/93/31
f 3/94/32 19/95/32 4/96/32
f 23/1/33 16/97/33 9/2/33
f 22/4/34 15/98/34 16/5/34
f 21/7/35 14/99/35 15/8/35
f 20/10/36 13/100/36 14/11/36
f 19/13/37 12/101/37 13/14/37
f 18/16/38 11/102/38 12/17/38
f 17/19/39 10/103/39 11/20/39
f 24/22/40 9/104/40 10/23/40
f 1/25/41 24/105/41 17/26/41
f 2/28/42 17/106/42 18/29/42
f 4/31/43 19/107/43 20/32/43
f 5/34/44 20/108/44 21/35/44
f 6/37/45 21/109/45 22/38/45
f 7/40/46 22/110/46 23/41/46
f 8/43/47 23/111/47 24/44/47
f 9/46/16 16/97/16 32/47/16
f 10/49/17 9/104/17 25/50/17
f 12/52/18 11/102/18 27/53/18
f 14/55/19 13/100/19 29/56/19
f 16/58/20 15/98/20 31/59/20
f 11/61/21 10/103/21 26/62/21
f 13/64/22 12/101/22 28/65/22
f 15/67/23 14/99/23 30/68/23
f 31/70/24 30/112/24 34/71/24
f 27/73/25 26/113/25 38/74/25
f 30/76/26 29/114/26 37/77/26
f 26/79/27 25/115/27 40/80/27
f 29/82/28 28/116/28 36/83/28
f 32/85/29 31/117/29 35/86/29
f 28/88/30 27/118/30 39/89/30
f 25/91/31 32/119/31 41/92/31
f 3/94/48 18/120/48 19/95/48
usemtl Tree_wood_inner.1
f 42/121/49 35/86/49 34/78/49
f 44/122/49 37/77/49 36/90/49
f 46/123/49 39/89/49 38/81/49
f 48/124/49 38/74/49 40/93/49
f 47/125/49 36/83/49 39/75/49
f 45/126/49 34/71/49 37/84/49
f 43/127/49 41/92/49 35/72/49
f 49/128/49 40/80/49 41/87/49
f 42/121/49 43/129/49 35/86/49
f 44/122/49 45/130/49 37/77/49
f 46/123/49 47/131/49 39/89/49
f 48/124/49 46/132/49 38/74/49
f 47/125/49 44/133/49 36/83/49
f 45/126/49 42/134/49 34/71/49
f 43/127/49 49/135/49 41/92/49
f 49/128/49 48/136/49 40/80/49
usemtl Tree_wood_inner.2
f 33/137/49 43/129/49 42/138/49
f 33/137/49 45/130/49 44/139/49
f 33/137/49 47/131/49 46/140/49
f 33/137/49 46/132/49 48/141/49
f 33/137/49 44/133/49 47/142/49
f 33/137/49 42/134/49 45/143/49
f 33/137/49 49/135/49 43/144/49
f 33/137/49 48/136/49 49/145/49
