# Blender v2.92.0 OBJ File: 'Tree_pack.blend'
# www.blender.org
mtllib Stump_1.mtl
o Stump.1
v 0.048616 0.595841 -0.058536
v 0.132764 0.588298 -0.042788
v 0.149629 0.617971 0.031535
v 0.123195 0.601599 0.073448
v 0.056942 0.606300 0.136276
v -0.027717 0.594798 0.096560
v -0.029127 0.592451 0.030303
v -0.019497 0.613472 -0.032817
v 0.123058 0.069676 -0.104055
v 0.158606 0.066045 -0.001632
v 0.111679 0.065505 0.114046
v 0.011518 0.065500 0.156531
v -0.097679 0.069495 0.117525
v -0.141581 0.074399 0.002724
v -0.103384 0.065024 -0.110891
v 0.008139 0.073824 -0.145347
v 0.049418 0.596610 -0.046258
v 0.121796 0.590122 -0.032712
v 0.136302 0.615645 0.031215
v 0.113565 0.601563 0.067265
v 0.056579 0.605607 0.121305
v -0.016238 0.595713 0.087144
v -0.017451 0.593694 0.030155
v -0.009168 0.611775 -0.024136
v 0.054588 0.568418 0.029315
v -0.009168 0.568418 -0.024136
v 0.049418 0.568418 -0.046258
v -0.017451 0.568418 0.030155
v -0.016238 0.568418 0.087144
v 0.056579 0.568418 0.121305
v 0.113565 0.568418 0.067265
v 0.136302 0.568418 0.031215
v 0.121796 0.568418 -0.032712
v 0.000001 -0.000000 -0.185510
v 0.131176 -0.000000 -0.131175
v 0.185511 -0.000000 0.000000
v 0.131176 -0.000000 0.131175
v 0.000001 -0.000000 0.185510
v -0.131175 -0.000000 0.131175
v -0.185509 -0.000000 0.000000
v -0.131175 -0.000000 -0.131175
vt 0.000000 0.000000
vt 1.000000 1.000000
vt 0.000000 1.000000
vt 0.000000 0.000000
vt 1.000000 1.000000
vt 0.000000 1.000000
vt 0.000000 0.000000
vt 1.000000 1.000000
vt 0.000000 1.000000
vt 0.000000 0.000000
vt 1.000000 1.000000
vt 0.000000 1.000000
vt 0.000000 0.000000
vt 1.000000 1.000000
vt 0.000000 1.000000
vt 0.000000 0.000000
vt 1.000000 1.000000
vt 0.000000 1.000000
vt 0.000000 0.000000
vt 1.000000 1.000000
vt 0.000000 1.000000
vt 0.000000 0.000000
vt 1.000000 1.000000
vt 0.000000 1.000000
vt 0.000000 0.000000
vt 1.000000 1.000000
vt 0.000000 1.000000
vt 0.000000 0.000000
vt 1.000000 1.000000
vt 0.000000 1.000000
vt 0.000000 0.000000
vt 1.000000 1.000000
vt 0.000000 1.000000
vt 0.000000 0.000000
vt 1.000000 1.000000
vt 0.000000 1.000000
vt 0.000000 0.000000
vt 1.000000 1.000000
vt 0.000000 1.000000
vt 0.000000 0.000000
vt 1.000000 1.000000
vt 0.000000 1.000000
vt 0.000000 0.000000
vt 1.000000 1.000000
vt 0.000000 1.000000
vt 0.000000 0.000000
vt 1.000000 1.000000
vt 0.000000 1.000000
vt 0.000000 0.000000
vt 1.000000 1.000000
vt 0.000000 1.000000
vt 0.000000 0.000000
vt 1.000000 1.000000
vt 0.000000 1.000000
vt 0.000000 0.000000
vt 1.000000 1.000000
vt 0.000000 1.000000
vt 0.000000 0.000000
vt 1.000000 1.000000
vt 0.000000 1.000000
vt 0.000000 0.000000
vt 1.000000 1.000000
vt 0.000000 1.000000
vt 0.000000 0.000000
vt 1.000000 1.000000
vt 0.000000 1.000000
vt 0.000000 0.000000
vt 1.000000 1.000000
vt 0.000000 1.000000
vt 0.000000 0.000000
vt 1.000000 1.000000
vt 0.000000 1.000000
vt 1.000000 1.000000
vt 0.000000 1.000000
vt 1.000000 1.000000
vt 0.000000 1.000000
vt 1.000000 1.000000
vt 0.000000 1.000000
vt 1.000000 1.000000
vt 0.000000 1.000000
vt 1.000000 1.000000
vt 0.000000 1.000000
vt 1.000000 1.000000
vt 0.000000 1.000000
vt 1.000000 1.000000
vt 0.000000 1.000000
vt 1.000000 0.000000
vt 1.000000 0.000000
vt 1.000000 0.000000
vt 1.000000 0.000000
vt 1.000000 0.000000
vt 1.000000 0.000000
vt 1.000000 0.000000
vt 1.000000 0.000000
vt 1.000000 0.000000
vt 1.000000 0.000000
vt 1.000000 0.000000
vt 1.000000 0.000000
vt 1.000000 0.000000
vt 1.000000 0.000000
vt 1.000000 0.000000
vt 1.000000 0.000000
vt 1.000000 0.000000
vt 1.000000 0.000000
vt 1.000000 0.000000
vt 1.000000 0.000000
vt 1.000000 0.000000
vt 1.000000 0.000000
vt 1.000000 0.000000
vt 1.000000 0.000000
vt 0.000000 0.000000
vt 1.000000 0.000000
vt 1.000000 0.000000
vt 1.000000 0.000000
vt 1.000000 0.000000
vt 1.000000 0.000000
vt 1.000000 0.000000
vt 1.000000 0.000000
vt 1.000000 0.000000
vn -0.3033 0.1792 -0.9359
vn -0.9261 0.1882 -0.3269
vn -0.9162 0.1798 0.3581
vn -0.3326 0.0818 0.9395
vn 0.3905 0.0017 0.9206
vn 0.9266 0.0086 0.3759
vn 0.9445 0.0350 -0.3266
vn 0.3396 0.1041 -0.9348
vn -0.1541 0.9292 -0.3360
vn 0.0264 0.9986 -0.0469
vn -0.1063 0.9938 -0.0329
vn 0.2231 0.9719 -0.0755
vn 0.1018 0.9924 -0.0689
vn -0.1720 0.9495 0.2624
vn -0.1146 0.9925 -0.0432
vn -0.0972 0.9486 0.3011
vn -0.9752 0.0000 0.2213
vn -0.6881 0.0000 -0.7256
vn 0.9998 0.0000 -0.0213
vn 0.3533 0.0000 0.9355
vn -0.1840 0.0000 0.9829
vn -0.8458 0.0000 -0.5335
vn 0.4247 0.0000 -0.9053
vn 0.9886 0.0000 0.1508
vn 0.3678 0.3362 0.8670
vn 0.8620 0.3600 0.3570
vn 0.8949 0.2485 -0.3707
vn 0.3476 0.4182 -0.8392
vn -0.3487 0.4117 -0.8419
vn -0.8063 0.4883 -0.3340
vn -0.8195 0.4617 0.3395
vn -0.3455 0.4298 0.8342
vn -0.3064 0.1799 -0.9347
vn -0.9735 0.2154 -0.0768
vn -0.9910 0.1326 0.0164
vn -0.4314 0.0699 0.8994
vn 0.6890 0.0400 0.7236
vn 0.8488 -0.0179 0.5284
vn 0.9745 0.0083 -0.2244
vn 0.1946 0.1462 -0.9699
vn 0.1018 0.9924 -0.0688
vn 0.3622 0.3231 0.8743
vn 0.8673 0.3506 0.3535
vn 0.8873 0.3542 -0.2954
vn 0.3254 0.3757 -0.8678
vn -0.2932 0.4816 -0.8259
vn -0.8322 0.4547 -0.3173
vn -0.8173 0.4704 0.3327
vn -0.3077 0.3240 0.8946
vn 0.0000 1.0000 -0.0000
usemtl Tree_wood
s off
f 15/1/1 1/2/1 16/3/1
f 14/4/2 8/5/2 15/6/2
f 13/7/3 7/8/3 14/9/3
f 12/10/4 6/11/4 13/12/4
f 11/13/5 5/14/5 12/15/5
f 10/16/6 4/17/6 11/18/6
f 9/19/7 3/20/7 10/21/7
f 16/22/8 2/23/8 9/24/8
f 3/25/9 18/26/9 19/27/9
f 5/28/10 20/29/10 21/30/10
f 7/31/11 22/32/11 23/33/11
f 1/34/12 24/35/12 17/36/12
f 2/37/13 17/38/13 18/39/13
f 4/40/14 19/41/14 20/42/14
f 6/43/15 21/44/15 22/45/15
f 8/46/16 23/47/16 24/48/16
f 19/49/17 33/50/17 32/51/17
f 21/52/18 31/53/18 30/54/18
f 23/55/19 29/56/19 28/57/19
f 17/58/20 26/59/20 27/60/20
f 18/61/21 27/62/21 33/63/21
f 20/64/22 32/65/22 31/66/22
f 22/67/23 30/68/23 29/69/23
f 24/70/24 28/71/24 26/72/24
f 12/10/25 37/73/25 11/18/25
f 10/16/26 37/73/26 36/74/26
f 9/19/27 36/75/27 35/76/27
f 16/22/28 35/77/28 34/78/28
f 15/1/29 34/79/29 41/80/29
f 14/4/30 41/81/30 40/82/30
f 13/7/31 40/83/31 39/84/31
f 12/10/32 39/85/32 38/86/32
f 15/1/33 8/87/33 1/2/33
f 14/4/34 7/88/34 8/5/34
f 13/7/35 6/89/35 7/8/35
f 12/10/36 5/90/36 6/11/36
f 11/13/37 4/91/37 5/14/37
f 10/16/38 3/92/38 4/17/38
f 9/19/39 2/93/39 3/20/39
f 16/22/40 1/94/40 2/23/40
f 3/25/9 2/93/9 18/26/9
f 5/28/10 4/91/10 20/29/10
f 7/31/11 6/89/11 22/32/11
f 1/34/12 8/87/12 24/35/12
f 2/37/41 1/94/41 17/38/41
f 4/40/14 3/92/14 19/41/14
f 6/43/15 5/90/15 21/44/15
f 8/46/16 7/88/16 23/47/16
f 19/49/17 18/95/17 33/50/17
f 21/52/18 20/96/18 31/53/18
f 23/55/19 22/97/19 29/56/19
f 17/58/20 24/98/20 26/59/20
f 18/61/21 17/99/21 27/62/21
f 20/64/22 19/100/22 32/65/22
f 22/67/23 21/101/23 30/68/23
f 24/70/24 23/102/24 28/71/24
f 12/10/42 38/103/42 37/73/42
f 10/16/43 11/104/43 37/73/43
f 9/19/44 10/105/44 36/75/44
f 16/22/45 9/106/45 35/77/45
f 15/1/46 16/107/46 34/79/46
f 14/4/47 15/108/47 41/81/47
f 13/7/48 14/109/48 40/83/48
f 12/10/49 13/110/49 39/85/49
usemtl Tree_wood_inner.1
f 25/111/50 27/112/50 26/59/50
f 25/111/50 26/113/50 28/71/50
f 25/111/50 28/114/50 29/56/50
f 25/111/50 29/115/50 30/68/50
f 25/111/50 30/116/50 31/53/50
f 25/111/50 31/117/50 32/65/50
f 25/111/50 32/118/50 33/50/50
f 25/111/50 33/119/50 27/62/50
