# Blender v2.92.0 OBJ File: 'Tree_pack.blend'
# www.blender.org
mtllib Trunk_1.mtl
o Trunk.1
v -0.000000 -0.000000 -0.185510
v 0.015528 2.615710 -0.055253
v 0.131175 -0.000000 -0.131175
v 0.036967 2.607633 -0.053106
v 0.185510 -0.000000 0.000000
v 0.051411 2.606433 0.003871
v 0.131175 -0.000000 0.131175
v 0.054298 2.606420 0.040741
v -0.000000 -0.000000 0.185510
v 0.011736 2.615308 0.072803
v -0.131176 -0.000000 0.131175
v -0.028285 2.626216 0.043125
v -0.185510 -0.000000 0.000000
v -0.062148 2.605361 -0.009263
v -0.131176 -0.000000 -0.131175
v -0.039760 2.624938 -0.028273
v 0.048615 0.595841 -0.058536
v -0.052293 1.741964 -0.138137
v 0.018051 1.735275 -0.117368
v 0.132763 0.588298 -0.042788
v 0.027463 1.730672 -0.079576
v 0.149628 0.617971 0.031535
v -0.003073 1.739691 -0.029485
v 0.123194 0.601599 0.073448
v -0.035466 1.760412 0.002513
v 0.056941 0.606300 0.136276
v -0.088240 1.742362 -0.008505
v -0.027718 0.594798 0.096560
v -0.113723 1.735153 -0.088238
v -0.029128 0.592451 0.030303
v -0.105742 1.738406 -0.134893
v -0.019498 0.613472 -0.032817
v 0.123057 0.069676 -0.104055
v 0.158605 0.066045 -0.001632
v 0.111678 0.065505 0.114046
v 0.011517 0.065500 0.156531
v -0.097680 0.069495 0.117525
v -0.141582 0.074399 0.002724
v -0.103385 0.065024 -0.110891
v 0.008138 0.073824 -0.145347
v 0.048150 1.162441 -0.093394
v 0.114114 1.152302 -0.081928
v 0.125340 1.163397 -0.022634
v 0.105986 1.160260 0.019585
v 0.058979 1.176447 0.070760
v -0.005865 1.166377 0.041906
v -0.025739 1.153271 -0.032844
v -0.015426 1.172617 -0.076083
v 0.087600 3.103596 -0.043706
v 0.103095 3.093906 -0.041993
v 0.114203 3.090694 0.003458
v 0.116458 3.090230 0.032870
v 0.084571 3.103878 0.058446
v 0.054990 3.118706 0.034772
v 0.025226 3.107725 -0.007019
v 0.045815 3.119512 -0.022183
v 0.028025 3.569943 -0.010752
v 0.032654 3.571682 -0.010279
v 0.035637 3.572802 0.002281
v 0.036226 3.573024 0.010408
v 0.027265 3.569657 0.017475
v 0.018757 3.566461 0.010933
v 0.012523 3.564120 -0.000615
v 0.016459 3.565598 -0.004805
v 0.020762 3.578964 0.001831
vt 0.000000 0.000000
vt 1.000000 1.000000
vt 0.000000 1.000000
vt 0.000000 0.000000
vt 1.000000 1.000000
vt 0.000000 1.000000
vt 0.000000 0.000000
vt 1.000000 1.000000
vt 0.000000 1.000000
vt 0.000000 0.000000
vt 1.000000 1.000000
vt 0.000000 1.000000
vt 0.000000 0.000000
vt 1.000000 1.000000
vt 0.000000 1.000000
vt 0.000000 0.000000
vt 1.000000 1.000000
vt 0.000000 1.000000
vt 0.000000 0.000000
vt 1.000000 1.000000
vt 0.000000 1.000000
vt 0.000000 0.000000
vt 1.000000 1.000000
vt 0.000000 1.000000
vt 0.000000 0.000000
vt 1.000000 1.000000
vt 0.000000 1.000000
vt 0.000000 0.000000
vt 1.000000 1.000000
vt 0.000000 1.000000
vt 0.000000 0.000000
vt 1.000000 1.000000
vt 0.000000 1.000000
vt 0.000000 0.000000
vt 1.000000 1.000000
vt 0.000000 1.000000
vt 0.000000 0.000000
vt 1.000000 1.000000
vt 0.000000 1.000000
vt 0.000000 0.000000
vt 1.000000 1.000000
vt 0.000000 1.000000
vt 0.000000 0.000000
vt 1.000000 1.000000
vt 0.000000 1.000000
vt 0.000000 0.000000
vt 1.000000 1.000000
vt 0.000000 1.000000
vt 0.000000 0.000000
vt 1.000000 1.000000
vt 0.000000 1.000000
vt 0.000000 0.000000
vt 1.000000 1.000000
vt 0.000000 1.000000
vt 0.000000 0.000000
vt 1.000000 1.000000
vt 0.000000 1.000000
vt 0.000000 0.000000
vt 1.000000 1.000000
vt 0.000000 1.000000
vt 0.000000 0.000000
vt 1.000000 1.000000
vt 0.000000 1.000000
vt 0.000000 0.000000
vt 1.000000 1.000000
vt 0.000000 1.000000
vt 0.000000 0.000000
vt 1.000000 1.000000
vt 0.000000 1.000000
vt 0.000000 0.000000
vt 1.000000 1.000000
vt 0.000000 1.000000
vt 0.000000 0.000000
vt 1.000000 1.000000
vt 0.000000 1.000000
vt 0.000000 0.000000
vt 1.000000 1.000000
vt 0.000000 1.000000
vt 0.000000 0.000000
vt 1.000000 1.000000
vt 0.000000 1.000000
vt 0.000000 0.000000
vt 1.000000 1.000000
vt 0.000000 1.000000
vt 0.000000 0.000000
vt 1.000000 1.000000
vt 0.000000 1.000000
vt 0.000000 0.000000
vt 1.000000 1.000000
vt 0.000000 1.000000
vt 0.000000 0.000000
vt 1.000000 1.000000
vt 0.000000 1.000000
vt 0.000000 0.000000
vt 1.000000 1.000000
vt 0.000000 1.000000
vt 0.000000 0.000000
vt 1.000000 1.000000
vt 0.000000 1.000000
vt 0.000000 0.000000
vt 1.000000 1.000000
vt 0.000000 1.000000
vt 0.000000 0.000000
vt 1.000000 1.000000
vt 0.000000 1.000000
vt 0.000000 0.000000
vt 1.000000 1.000000
vt 0.000000 1.000000
vt 0.000000 0.000000
vt 1.000000 1.000000
vt 0.000000 1.000000
vt 0.000000 0.000000
vt 1.000000 1.000000
vt 0.000000 1.000000
vt 0.000000 0.000000
vt 1.000000 1.000000
vt 0.000000 1.000000
vt 0.000000 0.000000
vt 1.000000 1.000000
vt 0.000000 1.000000
vt 0.000000 0.000000
vt 1.000000 1.000000
vt 0.000000 1.000000
vt 0.000000 0.000000
vt 1.000000 1.000000
vt 0.000000 1.000000
vt 0.000000 0.000000
vt 1.000000 1.000000
vt 0.000000 1.000000
vt 0.000000 0.000000
vt 1.000000 1.000000
vt 0.000000 1.000000
vt 0.000000 0.000000
vt 1.000000 1.000000
vt 0.000000 1.000000
vt 0.000000 0.000000
vt 1.000000 1.000000
vt 0.000000 1.000000
vt 0.000000 0.000000
vt 1.000000 1.000000
vt 0.000000 1.000000
vt 0.000000 0.000000
vt 1.000000 1.000000
vt 0.000000 1.000000
vt 0.000000 0.000000
vt 1.000000 1.000000
vt 0.000000 1.000000
vt 0.000000 0.000000
vt 1.000000 1.000000
vt 0.000000 1.000000
vt 0.000000 0.000000
vt 1.000000 1.000000
vt 0.000000 1.000000
vt 0.000000 0.000000
vt 1.000000 1.000000
vt 0.000000 1.000000
vt 0.000000 0.000000
vt 1.000000 1.000000
vt 0.000000 1.000000
vt 0.000000 0.000000
vt 1.000000 1.000000
vt 0.000000 1.000000
vt 0.000000 0.000000
vt 1.000000 1.000000
vt 0.000000 1.000000
vt 0.000000 0.000000
vt 1.000000 1.000000
vt 0.000000 1.000000
vt 0.000000 0.000000
vt 1.000000 0.000000
vt 1.000000 1.000000
vt 0.000000 0.000000
vt 1.000000 0.000000
vt 0.000000 0.000000
vt 1.000000 0.000000
vt 0.000000 0.000000
vt 1.000000 0.000000
vt 0.000000 0.000000
vt 1.000000 0.000000
vt 0.000000 0.000000
vt 1.000000 0.000000
vt 0.000000 0.000000
vt 1.000000 0.000000
vt 0.000000 0.000000
vt 1.000000 0.000000
vt 1.000000 0.000000
vt 1.000000 0.000000
vt 1.000000 0.000000
vt 1.000000 0.000000
vt 1.000000 0.000000
vt 1.000000 0.000000
vt 1.000000 0.000000
vt 1.000000 0.000000
vt 1.000000 0.000000
vt 1.000000 0.000000
vt 1.000000 0.000000
vt 1.000000 0.000000
vt 1.000000 0.000000
vt 1.000000 0.000000
vt 1.000000 0.000000
vt 1.000000 0.000000
vt 1.000000 0.000000
vt 1.000000 0.000000
vt 1.000000 0.000000
vt 1.000000 0.000000
vt 1.000000 0.000000
vt 1.000000 0.000000
vt 1.000000 0.000000
vt 1.000000 0.000000
vt 1.000000 0.000000
vt 1.000000 0.000000
vt 1.000000 0.000000
vt 1.000000 0.000000
vt 1.000000 0.000000
vt 1.000000 0.000000
vt 1.000000 0.000000
vt 1.000000 0.000000
vt 1.000000 0.000000
vt 1.000000 0.000000
vt 1.000000 0.000000
vt 1.000000 0.000000
vt 1.000000 0.000000
vt 1.000000 0.000000
vt 1.000000 0.000000
vt 1.000000 0.000000
vt 1.000000 0.000000
vt 1.000000 0.000000
vt 1.000000 0.000000
vt 1.000000 0.000000
vt 1.000000 0.000000
vt 1.000000 0.000000
vt 1.000000 0.000000
vt 1.000000 0.000000
vn 0.2882 0.0641 -0.9554
vn 0.9703 -0.0035 -0.2421
vn 0.8417 -0.0987 0.5309
vn 0.6671 -0.0976 0.7385
vn -0.1896 -0.0444 0.9809
vn -0.9529 0.0291 0.3019
vn -0.9825 0.0926 -0.1616
vn -0.0669 0.0994 -0.9928
vn -0.3033 0.1792 -0.9359
vn -0.2789 -0.1219 -0.9526
vn -0.9261 0.1882 -0.3269
vn -0.9353 -0.1809 -0.3040
vn -0.9162 0.1798 0.3581
vn -0.9543 -0.1182 0.2744
vn -0.3326 0.0818 0.9395
vn -0.4092 0.0213 0.9122
vn 0.3905 0.0017 0.9206
vn 0.7523 0.1952 0.6293
vn 0.9266 0.0086 0.3759
vn 0.8845 0.2021 0.4205
vn 0.9445 0.0350 -0.3266
vn 0.9667 0.1457 -0.2103
vn 0.3396 0.1041 -0.9348
vn 0.1663 -0.0325 -0.9855
vn 0.3548 0.3747 -0.8566
vn 0.8673 0.3445 -0.3593
vn 0.8650 0.3512 0.3583
vn 0.3622 0.3231 0.8743
vn -0.3594 0.3436 0.8676
vn -0.8158 0.4693 0.3379
vn -0.8216 0.4573 -0.3403
vn -0.3360 0.4784 -0.8113
vn 0.1782 -0.0623 -0.9820
vn 0.9732 0.0206 -0.2291
vn 0.8290 0.0789 0.5537
vn 0.6889 0.0803 0.7204
vn -0.4338 0.1022 0.8952
vn -0.9997 0.0084 0.0210
vn -0.9883 -0.0046 -0.1523
vn -0.3657 -0.0575 -0.9290
vn 0.1143 0.0072 -0.9934
vn 0.9617 -0.1249 -0.2439
vn -0.4305 0.0849 -0.8986
vn -0.6320 0.1188 -0.7658
vn 0.9887 -0.1283 -0.0778
vn -0.5858 0.1127 0.8026
vn -0.8235 0.1408 0.5495
vn 0.6066 -0.0672 0.7921
vn -0.8769 -0.0311 0.4797
vn 0.9579 0.1555 -0.2414
vn -0.6079 -0.0069 0.7940
vn 0.0728 0.0767 -0.9944
vn 0.5796 0.1419 0.8025
vn -0.7250 -0.0209 -0.6884
vn 0.9842 0.1600 -0.0757
vn -0.4585 0.0042 -0.8887
vn 0.3835 0.9220 -0.0529
vn -0.2094 0.7334 -0.6467
vn -0.5371 0.5074 -0.6738
vn -0.8368 0.4035 0.3699
vn 0.0612 0.8688 0.4914
vn 0.3815 0.9083 -0.1716
vn -0.7173 0.4811 -0.5040
vn -0.6350 0.5186 0.5725
vn 0.1304 0.0836 -0.9879
vn 0.9693 -0.0029 -0.2458
vn 0.9968 -0.0198 -0.0780
vn 0.5845 -0.1039 0.8047
vn -0.6010 -0.0325 0.7986
vn -0.8442 0.0260 0.5354
vn -0.6957 0.1057 -0.7105
vn -0.4155 0.1390 -0.8989
vn -0.3064 0.1799 -0.9347
vn -0.0528 -0.1116 -0.9924
vn -0.9735 0.2154 -0.0768
vn -0.9704 -0.1636 -0.1774
vn -0.9910 0.1326 0.0164
vn -0.9441 -0.1078 0.3115
vn -0.4314 0.0699 0.8994
vn -0.2288 0.0764 0.9705
vn 0.6890 0.0400 0.7236
vn 0.7495 0.1947 0.6327
vn 0.8488 -0.0179 0.5284
vn 0.8526 0.1957 0.4845
vn 0.9745 0.0083 -0.2244
vn 0.9641 0.1453 -0.2224
vn 0.1946 0.1462 -0.9699
vn 0.2808 -0.0254 -0.9594
vn 0.3196 0.4254 -0.8467
vn 0.9221 0.2289 -0.3119
vn 0.8637 0.3606 0.3521
vn 0.3678 0.3362 0.8670
vn -0.2898 0.4294 0.8553
vn -0.8218 0.4617 0.3340
vn -0.8126 0.4913 -0.3137
vn -0.2993 0.3984 -0.8670
vn 0.1619 -0.0605 -0.9850
vn 0.9817 0.0193 -0.1895
vn 0.9037 0.0820 0.4203
vn 0.7472 0.0865 0.6590
vn -0.4179 0.1052 0.9024
vn -0.9672 0.0606 0.2465
vn -0.9703 -0.0213 -0.2410
vn -0.2728 -0.0722 -0.9594
vn 0.1028 0.0084 -0.9947
vn 0.9611 -0.1251 -0.2463
vn -0.4255 0.0847 -0.9010
vn -0.7036 0.1255 -0.6994
vn 0.9887 -0.1283 -0.0775
vn -0.5727 0.1093 0.8125
vn -0.8566 0.1532 0.4927
vn 0.5921 -0.0630 0.8034
vn -0.8098 -0.0343 0.5857
vn 0.9619 0.1567 -0.2240
vn -0.6275 -0.0087 0.7786
vn 0.1652 0.0905 -0.9821
vn 0.6559 0.1435 0.7411
vn -0.5911 -0.0051 -0.8066
vn 0.9844 0.1602 -0.0730
vn -0.4565 0.0046 -0.8897
usemtl Tree_wood
s off
f 18/1/1 4/2/1 19/3/1
f 19/4/2 6/5/2 21/6/2
f 21/7/3 8/8/3 23/9/3
f 23/10/4 10/11/4 25/12/4
f 25/13/5 12/14/5 27/15/5
f 27/16/6 14/17/6 29/18/6
f 29/19/7 16/20/7 31/21/7
f 31/22/8 2/23/8 18/24/8
f 39/25/9 17/26/9 40/27/9
f 48/28/10 18/29/10 41/30/10
f 38/31/11 32/32/11 39/33/11
f 47/34/12 31/35/12 48/36/12
f 37/37/13 30/38/13 38/39/13
f 46/40/14 29/41/14 47/42/14
f 36/43/15 28/44/15 37/45/15
f 45/46/16 27/47/16 46/48/16
f 35/49/17 26/50/17 36/51/17
f 44/52/18 25/53/18 45/54/18
f 34/55/19 24/56/19 35/57/19
f 43/58/20 23/59/20 44/60/20
f 33/61/21 22/62/21 34/63/21
f 42/64/22 21/65/22 43/66/22
f 40/67/23 20/68/23 33/69/23
f 41/70/24 19/71/24 42/72/24
f 1/73/25 33/74/25 3/75/25
f 3/76/26 34/77/26 5/78/26
f 5/79/27 35/80/27 7/81/27
f 7/82/28 36/83/28 9/84/28
f 9/85/29 37/86/29 11/87/29
f 11/88/30 38/89/30 13/90/30
f 13/91/31 39/92/31 15/93/31
f 15/94/32 40/95/32 1/96/32
f 17/97/33 42/98/33 20/99/33
f 20/100/34 43/101/34 22/102/34
f 22/103/35 44/104/35 24/105/35
f 24/106/36 45/107/36 26/108/36
f 26/109/37 46/110/37 28/111/37
f 28/112/38 47/113/38 30/114/38
f 30/115/39 48/116/39 32/117/39
f 32/118/40 41/119/40 17/120/40
f 4/121/41 49/122/41 50/123/41
f 6/124/42 50/125/42 51/126/42
f 2/127/43 56/128/43 49/129/43
f 16/130/44 55/131/44 56/132/44
f 8/133/45 51/134/45 52/135/45
f 12/136/46 53/137/46 54/138/46
f 14/139/47 54/140/47 55/141/47
f 10/142/48 52/143/48 53/144/48
f 55/145/49 62/146/49 63/147/49
f 51/148/50 58/149/50 59/150/50
f 54/151/51 61/152/51 62/153/51
f 50/154/52 57/155/52 58/156/52
f 53/157/53 60/158/53 61/159/53
f 56/160/54 63/161/54 64/162/54
f 52/163/55 59/164/55 60/165/55
f 49/166/56 64/167/56 57/168/56
f 60/169/57 59/170/57 65/171/57
f 58/172/58 57/173/58 65/171/58
f 57/174/59 64/175/59 65/171/59
f 63/176/60 62/177/60 65/171/60
f 61/178/61 60/179/61 65/171/61
f 59/180/62 58/181/62 65/171/62
f 64/182/63 63/183/63 65/171/63
f 62/184/64 61/185/64 65/171/64
f 18/1/65 2/186/65 4/2/65
f 19/4/66 4/187/66 6/5/66
f 21/7/67 6/188/67 8/8/67
f 23/10/68 8/189/68 10/11/68
f 25/13/69 10/190/69 12/14/69
f 27/16/70 12/191/70 14/17/70
f 29/19/71 14/192/71 16/20/71
f 31/22/72 16/193/72 2/23/72
f 39/25/73 32/194/73 17/26/73
f 48/28/74 31/195/74 18/29/74
f 38/31/75 30/196/75 32/32/75
f 47/34/76 29/197/76 31/35/76
f 37/37/77 28/198/77 30/38/77
f 46/40/78 27/199/78 29/41/78
f 36/43/79 26/200/79 28/44/79
f 45/46/80 25/201/80 27/47/80
f 35/49/81 24/202/81 26/50/81
f 44/52/82 23/203/82 25/53/82
f 34/55/83 22/204/83 24/56/83
f 43/58/84 21/205/84 23/59/84
f 33/61/85 20/206/85 22/62/85
f 42/64/86 19/207/86 21/65/86
f 40/67/87 17/208/87 20/68/87
f 41/70/88 18/209/88 19/71/88
f 1/73/89 40/210/89 33/74/89
f 3/76/90 33/211/90 34/77/90
f 5/79/91 34/212/91 35/80/91
f 7/82/92 35/213/92 36/83/92
f 9/85/93 36/214/93 37/86/93
f 11/88/94 37/215/94 38/89/94
f 13/91/95 38/216/95 39/92/95
f 15/94/96 39/217/96 40/95/96
f 17/97/97 41/218/97 42/98/97
f 20/100/98 42/219/98 43/101/98
f 22/103/99 43/220/99 44/104/99
f 24/106/100 44/221/100 45/107/100
f 26/109/101 45/222/101 46/110/101
f 28/112/102 46/223/102 47/113/102
f 30/115/103 47/224/103 48/116/103
f 32/118/104 48/225/104 41/119/104
f 4/121/105 2/186/105 49/122/105
f 6/124/106 4/187/106 50/125/106
f 2/127/107 16/193/107 56/128/107
f 16/130/108 14/192/108 55/131/108
f 8/133/109 6/188/109 51/134/109
f 12/136/110 10/190/110 53/137/110
f 14/139/111 12/191/111 54/140/111
f 10/142/112 8/189/112 52/143/112
f 55/145/113 54/226/113 62/146/113
f 51/148/114 50/227/114 58/149/114
f 54/151/115 53/228/115 61/152/115
f 50/154/116 49/229/116 57/155/116
f 53/157/117 52/230/117 60/158/117
f 56/160/118 55/231/118 63/161/118
f 52/163/119 51/232/119 59/164/119
f 49/166/120 56/233/120 64/167/120
